<?xml version="1.0" encoding="UTF-8" standalone="no"?>
<svg
   xmlns:osb="http://www.openswatchbook.org/uri/2009/osb"
   xmlns:dc="http://purl.org/dc/elements/1.1/"
   xmlns:cc="http://creativecommons.org/ns#"
   xmlns:rdf="http://www.w3.org/1999/02/22-rdf-syntax-ns#"
   xmlns:svg="http://www.w3.org/2000/svg"
   xmlns="http://www.w3.org/2000/svg"
   xmlns:sodipodi="http://sodipodi.sourceforge.net/DTD/sodipodi-0.dtd"
   xmlns:inkscape="http://www.inkscape.org/namespaces/inkscape"
   width="315.41678"
   height="181.35577"
   id="svg2"
   version="1.1"
   inkscape:version="0.91 r13725"
   sodipodi:docname="tank.svg">
  <sodipodi:namedview
     id="base"
     pagecolor="#ffffff"
     bordercolor="#666666"
     borderopacity="1.0"
     inkscape:pageopacity="0.0"
     inkscape:pageshadow="2"
     inkscape:zoom="1.9993444"
     inkscape:cx="120.56427"
     inkscape:cy="33.260207"
     inkscape:document-units="px"
     inkscape:current-layer="layer1"
     showgrid="false"
     inkscape:window-width="1440"
     inkscape:window-height="801"
     inkscape:window-x="0"
     inkscape:window-y="1"
     inkscape:window-maximized="1"
     inkscape:snap-intersection-paths="true"
     inkscape:snap-midpoints="true"
     inkscape:snap-object-midpoints="true"
     inkscape:object-nodes="true"
     inkscape:snap-smooth-nodes="true"
     inkscape:snap-center="true"
     inkscape:snap-bbox="true"
     inkscape:bbox-paths="true"
     inkscape:bbox-nodes="true"
     inkscape:snap-bbox-edge-midpoints="true"
     inkscape:snap-bbox-midpoints="true"
     inkscape:snap-grids="false"
     inkscape:snap-to-guides="false"
     inkscape:snap-global="false" />
  <defs
     id="defs4">
    <linearGradient
       id="linearGradient5878"
       osb:paint="solid">
      <stop
         style="stop-color:#000000;stop-opacity:1;"
         offset="0"
         id="stop5880" />
    </linearGradient>
    <inkscape:path-effect
       effect="skeletal"
       id="path-effect4358"
       is_visible="true"
       pattern="m 104.18734,220.98288 c 0,-2.76 2.24,-5 5,-5 2.76,0 5,2.24 5,5 0,2.76 -2.24,5 -5,5 -2.76,0 -5,-2.24 -5,-5 z"
       copytype="single_stretched"
       prop_scale="1"
       scale_y_rel="false"
       spacing="0"
       normal_offset="0"
       tang_offset="0"
       prop_units="false"
       vertical_pattern="false"
       fuse_tolerance="0" />
    <inkscape:perspective
       sodipodi:type="inkscape:persp3d"
       inkscape:vp_x="0 : 526.18109 : 1"
       inkscape:vp_y="0 : 1000 : 0"
       inkscape:vp_z="744.09448 : 526.18109 : 1"
       inkscape:persp3d-origin="372.04724 : 350.78739 : 1"
       id="perspective10" />
    <inkscape:perspective
       id="perspective2824"
       inkscape:persp3d-origin="0.5 : 0.33333333 : 1"
       inkscape:vp_z="1 : 0.5 : 1"
       inkscape:vp_y="0 : 1000 : 0"
       inkscape:vp_x="0 : 0.5 : 1"
       sodipodi:type="inkscape:persp3d" />
  </defs>
  <metadata
     id="metadata7">
    <rdf:RDF>
      <cc:Work
         rdf:about="">
        <dc:format>image/svg+xml</dc:format>
        <dc:type
           rdf:resource="http://purl.org/dc/dcmitype/StillImage" />
        <dc:title />
      </cc:Work>
    </rdf:RDF>
  </metadata>
  <g
     inkscape:label="Capa 1"
     inkscape:groupmode="layer"
     id="layer1"
     transform="translate(-104.18734,-215.98288)">
    <path
       style="fill:#2e3436;fill-opacity:1;stroke:none"
       d="m 218.71062,215.98288 c -10.86291,0 -13.25923,0.2994 -19.26724,2.42651 -9.37456,3.31904 -18.02598,7.1226 -24.15647,14.1607 -12.18657,13.99078 -21.29537,51.42758 -21.29537,51.42758 l 9.45254,0.32595 c 5.19644,0.17257 34.3183,0.39716 64.71907,0.50703 l 55.26654,0.2173 -0.57946,-8.83685 c -0.29241,-4.45147 -0.90216,-8.48097 -1.88327,-12.34986 l 110.85898,3.1856 8.08919,7.7655 19.689,-6.96728 0,-29.11815 -18.49282,-7.5839 -10.45497,8.41139 -119.28678,3.40985 c -7.66985,-10.98332 -19.29435,-19.56372 -33.39171,-24.55486 -6.00799,-2.12711 -8.40435,-2.42651 -19.26723,-2.42651 z"
       id="path3686"
       sodipodi:nodetypes="csacccccccccccccsc" />
    <path
       style="fill:#2e3436;fill-opacity:1;stroke:none"
       d="m 142.70685,286.96743 c -6.4047,5.33714 -10.79456,7.68399 -22.16456,34.04361 l 227.44029,0 c -16.60433,-10.84152 -21.47892,-21.269 -49.97892,-32.269 l -64.75529,-0.6519 c -35.60517,-0.36038 -70.51337,-0.78168 -77.61219,-0.90541 l -12.92933,-0.2173 z"
       id="path2827"
       sodipodi:nodetypes="ccccccc" />
    <path
       style="fill:none;stroke:#2e3436;stroke-width:8;stroke-miterlimit:4;stroke-opacity:1"
       d="m 131.17872,327.57773 217.3833,0 c 0,0 26.2498,-0.35818 28.18377,11.33452 7.89518,47.73383 -52.18377,54.42641 -52.18377,54.42641 l -177.3833,0 c -16.06123,0 -38.99138,-12.93015 -38.99138,-28.99138 l 0,-13.77817 c 0,-16.06123 6.93015,-22.99138 22.99138,-22.99138 z"
       id="rect3619"
       sodipodi:nodetypes="ccsccccc" />
    <g
       id="g3721"
       transform="matrix(0.58490579,0,0,0.58490579,-81.984403,63.627373)">
      <circle
         transform="matrix(1.5358008,0,0,1.5358008,108.60844,-213.86303)"
         id="path3723"
         style="fill:#2e3436;fill-opacity:1;stroke:none"
         sodipodi:type="arc"
         sodipodi:ry="18.928572"
         sodipodi:rx="18.928572"
         sodipodi:cy="462.00504"
         sodipodi:cx="168.92857"
         d="m 187.85715,462.00504 c 0,10.45396 -8.47461,18.92857 -18.92858,18.92857 C 158.47461,480.93361 150,472.459 150,462.00504 c 0,-10.45397 8.47461,-18.92858 18.92857,-18.92858 10.45397,0 18.92858,8.47461 18.92858,18.92858 z" />
      <g
         id="g3725"
         transform="translate(121.62237,-3.0129153)">
        <rect
           ry="6.0104074"
           y="461.22092"
           x="240.41631"
           height="24.04163"
           width="12.020815"
           id="rect3727"
           style="fill:#2e3436;fill-opacity:1;stroke:none" />
        <rect
           style="fill:#2e3436;fill-opacity:1;stroke:none"
           id="rect3729"
           width="12.020815"
           height="24.04163"
           x="240.41631"
           y="512.13263"
           ry="6.0104074" />
      </g>
      <g
         transform="matrix(0.70710678,-0.70710678,0.70710678,0.70710678,-158.83336,317.30223)"
         id="g3731">
        <rect
           style="fill:#2e3436;fill-opacity:1;stroke:none"
           id="rect3733"
           width="12.020815"
           height="24.04163"
           x="240.41631"
           y="461.22092"
           ry="6.0104074" />
        <rect
           ry="6.0104074"
           y="512.13263"
           x="240.41631"
           height="24.04163"
           width="12.020815"
           id="rect3735"
           style="fill:#2e3436;fill-opacity:1;stroke:none" />
      </g>
      <g
         id="g3737"
         transform="matrix(0,-1,1,0,-130.6485,742.11139)">
        <rect
           ry="6.0104074"
           y="461.22092"
           x="240.41631"
           height="24.04163"
           width="12.020815"
           id="rect3739"
           style="fill:#2e3436;fill-opacity:1;stroke:none" />
        <rect
           style="fill:#2e3436;fill-opacity:1;stroke:none"
           id="rect3741"
           width="12.020815"
           height="24.04163"
           x="240.41631"
           y="512.13263"
           ry="6.0104074" />
      </g>
      <g
         transform="matrix(-0.70710678,-0.70710678,0.70710678,-0.70710678,189.66664,1022.5671)"
         id="g3743">
        <rect
           style="fill:#2e3436;fill-opacity:1;stroke:none"
           id="rect3745"
           width="12.020815"
           height="24.04163"
           x="240.41631"
           y="461.22092"
           ry="6.0104074" />
        <rect
           ry="6.0104074"
           y="512.13263"
           x="240.41631"
           height="24.04163"
           width="12.020815"
           id="rect3747"
           style="fill:#2e3436;fill-opacity:1;stroke:none" />
      </g>
    </g>
    <path
       style="fill:#fa8320;fill-opacity:1;stroke:none"
       d="m 274.31148,360.77148 a 27.65373,27.65373 0 0 1 -27.65373,27.65373 27.65373,27.65373 0 0 1 -27.65374,-27.65373 27.65373,27.65373 0 0 1 27.65374,-27.65373 27.65373,27.65373 0 0 1 27.65373,27.65373 z"
       id="path3777" />
    <g
       transform="matrix(0.45148946,0,0,0.45148946,188.61936,126.2598)"
       id="g4287">
      <circle
         style="fill:#2e3436;fill-opacity:1;stroke:none"
         id="path4289"
         transform="matrix(1.5358008,0,0,1.5358008,108.60844,-213.86303)"
         sodipodi:type="arc"
         sodipodi:ry="18.928572"
         sodipodi:rx="18.928572"
         sodipodi:cy="462.00504"
         sodipodi:cx="168.92857"
         d="m 187.85715,462.00504 c 0,10.45396 -8.47461,18.92857 -18.92858,18.92857 C 158.47461,480.93361 150,472.459 150,462.00504 c 0,-10.45397 8.47461,-18.92858 18.92857,-18.92858 10.45397,0 18.92858,8.47461 18.92858,18.92858 z" />
      <g
         transform="translate(121.62237,-3.0129153)"
         id="g4291">
        <rect
           style="fill:#2e3436;fill-opacity:1;stroke:none"
           id="rect4293"
           width="12.020815"
           height="24.04163"
           x="240.41631"
           y="461.22092"
           ry="6.0104074" />
        <rect
           ry="6.0104074"
           y="512.13263"
           x="240.41631"
           height="24.04163"
           width="12.020815"
           id="rect4295"
           style="fill:#2e3436;fill-opacity:1;stroke:none" />
      </g>
      <g
         id="g4297"
         transform="matrix(0.70710678,-0.70710678,0.70710678,0.70710678,-158.83336,317.30223)">
        <rect
           ry="6.0104074"
           y="461.22092"
           x="240.41631"
           height="24.04163"
           width="12.020815"
           id="rect4299"
           style="fill:#2e3436;fill-opacity:1;stroke:none" />
        <rect
           style="fill:#2e3436;fill-opacity:1;stroke:none"
           id="rect4301"
           width="12.020815"
           height="24.04163"
           x="240.41631"
           y="512.13263"
           ry="6.0104074" />
      </g>
      <g
         transform="matrix(0,-1,1,0,-130.6485,742.11139)"
         id="g4303">
        <rect
           style="fill:#2e3436;fill-opacity:1;stroke:none"
           id="rect4305"
           width="12.020815"
           height="24.04163"
           x="240.41631"
           y="461.22092"
           ry="6.0104074" />
        <rect
           ry="6.0104074"
           y="512.13263"
           x="240.41631"
           height="24.04163"
           width="12.020815"
           id="rect4307"
           style="fill:#2e3436;fill-opacity:1;stroke:none" />
      </g>
      <g
         id="g4309"
         transform="matrix(-0.70710678,-0.70710678,0.70710678,-0.70710678,189.66664,1022.5671)">
        <rect
           ry="6.0104074"
           y="461.22092"
           x="240.41631"
           height="24.04163"
           width="12.020815"
           id="rect4311"
           style="fill:#2e3436;fill-opacity:1;stroke:none" />
        <rect
           style="fill:#2e3436;fill-opacity:1;stroke:none"
           id="rect4313"
           width="12.020815"
           height="24.04163"
           x="240.41631"
           y="512.13263"
           ry="6.0104074" />
      </g>
    </g>
    <path
       style="fill:none;fill-rule:evenodd;stroke:#000000;stroke-width:1px;stroke-linecap:butt;stroke-linejoin:miter;stroke-opacity:1"
       d="m 246.65775,360.77148 27.65373,0"
       id="path4306"
       inkscape:connector-curvature="0" />
    <path
       style="fill:none;fill-rule:evenodd;stroke:#000000;stroke-width:1px;stroke-linecap:butt;stroke-linejoin:miter;stroke-opacity:1"
       d="m 246.65775,388.42521 0,-55.30746"
       id="path4350"
       inkscape:connector-curvature="0" />
    <path
       style="fill:none;fill-rule:evenodd;stroke:#000000;stroke-width:1px;stroke-linecap:butt;stroke-linejoin:miter;stroke-opacity:1"
       d="m 246.65775,360.77148 -27.66051,0"
       id="path4352"
       inkscape:connector-curvature="0" />
    <path
       style="fill:none;fill-rule:evenodd;stroke:#000000;stroke-width:0.98165339px;stroke-linecap:round;stroke-linejoin:round;stroke-opacity:1"
       d="m 227.81452,380.32562 c 5.23952,-19.55414 32.44693,-19.55414 37.68645,0"
       id="path6034"
       inkscape:connector-curvature="0"
       sodipodi:nodetypes="cc" />
    <path
       sodipodi:nodetypes="cc"
       inkscape:connector-curvature="0"
       id="path6056"
       d="m 227.81831,341.19916 c 5.23952,19.55414 32.44693,19.55414 37.68645,0"
       style="fill:none;fill-rule:evenodd;stroke:#000000;stroke-width:0.98165339px;stroke-linecap:round;stroke-linejoin:round;stroke-opacity:1" />
    <path
       id="path6083"
       d="m 212.59618,360.77148 a 27.65373,27.65373 0 0 1 -27.65373,27.65373 27.65373,27.65373 0 0 1 -27.65374,-27.65373 27.65373,27.65373 0 0 1 27.65374,-27.65373 27.65373,27.65373 0 0 1 27.65373,27.65373 z"
       style="fill:#fa8320;fill-opacity:1;stroke:none"
       inkscape:connector-curvature="0" />
    <path
       inkscape:connector-curvature="0"
       id="path6085"
       d="m 184.94245,360.77148 27.65373,0"
       style="fill:none;fill-rule:evenodd;stroke:#000000;stroke-width:1px;stroke-linecap:butt;stroke-linejoin:miter;stroke-opacity:1" />
    <path
       inkscape:connector-curvature="0"
       id="path6087"
       d="m 184.94245,388.42521 0,-55.30746"
       style="fill:none;fill-rule:evenodd;stroke:#000000;stroke-width:1px;stroke-linecap:butt;stroke-linejoin:miter;stroke-opacity:1" />
    <path
       inkscape:connector-curvature="0"
       id="path6089"
       d="m 184.94245,360.77148 -27.66051,0"
       style="fill:none;fill-rule:evenodd;stroke:#000000;stroke-width:1px;stroke-linecap:butt;stroke-linejoin:miter;stroke-opacity:1" />
    <path
       sodipodi:nodetypes="cc"
       inkscape:connector-curvature="0"
       id="path6091"
       d="m 166.09922,380.32562 c 5.23952,-19.55414 32.44693,-19.55414 37.68645,0"
       style="fill:none;fill-rule:evenodd;stroke:#000000;stroke-width:0.98165339px;stroke-linecap:round;stroke-linejoin:round;stroke-opacity:1" />
    <path
       style="fill:none;fill-rule:evenodd;stroke:#000000;stroke-width:0.98165339px;stroke-linecap:round;stroke-linejoin:round;stroke-opacity:1"
       d="m 166.10301,341.19916 c 5.23952,19.55414 32.44693,19.55414 37.68645,0"
       id="path6093"
       inkscape:connector-curvature="0"
       sodipodi:nodetypes="cc" />
    <path
       id="path6095"
       d="m 335.31944,360.77148 a 27.65373,27.65373 0 0 1 -27.65373,27.65373 27.65373,27.65373 0 0 1 -27.65374,-27.65373 27.65373,27.65373 0 0 1 27.65374,-27.65373 27.65373,27.65373 0 0 1 27.65373,27.65373 z"
       style="fill:#fa8320;fill-opacity:1;stroke:none"
       inkscape:connector-curvature="0" />
    <path
       inkscape:connector-curvature="0"
       id="path6097"
       d="m 307.66571,360.77148 27.65373,0"
       style="fill:none;fill-rule:evenodd;stroke:#000000;stroke-width:1px;stroke-linecap:butt;stroke-linejoin:miter;stroke-opacity:1" />
    <path
       inkscape:connector-curvature="0"
       id="path6099"
       d="m 307.66571,388.42521 0,-55.30746"
       style="fill:none;fill-rule:evenodd;stroke:#000000;stroke-width:1px;stroke-linecap:butt;stroke-linejoin:miter;stroke-opacity:1" />
    <path
       inkscape:connector-curvature="0"
       id="path6101"
       d="m 307.66571,360.77148 -27.66051,0"
       style="fill:none;fill-rule:evenodd;stroke:#000000;stroke-width:1px;stroke-linecap:butt;stroke-linejoin:miter;stroke-opacity:1" />
    <path
       sodipodi:nodetypes="cc"
       inkscape:connector-curvature="0"
       id="path6103"
       d="m 288.82248,380.32562 c 5.23952,-19.55414 32.44693,-19.55414 37.68645,0"
       style="fill:none;fill-rule:evenodd;stroke:#000000;stroke-width:0.98165339px;stroke-linecap:round;stroke-linejoin:round;stroke-opacity:1" />
    <path
       style="fill:none;fill-rule:evenodd;stroke:#000000;stroke-width:0.98165339px;stroke-linecap:round;stroke-linejoin:round;stroke-opacity:1"
       d="m 288.82627,341.19916 c 5.23952,19.55414 32.44693,19.55414 37.68645,0"
       id="path6105"
       inkscape:connector-curvature="0"
       sodipodi:nodetypes="cc" />
  </g>
</svg>
